<?xml version="1.0" encoding="UTF-8"?>
<!DOCTYPE svg PUBLIC "-//W3C//DTD SVG 1.1//EN"
  "http://www.w3.org/Graphics/SVG/1.1/DTD/svg11.dtd">
<!-- Created with Inkpad (http://www.taptrix.com/) --><svg xmlns:inkpad="http://taptrix.com/inkpad/svg_extensions" height="49pt" xmlns:xlink="http://www.w3.org/1999/xlink" xmlns="http://www.w3.org/2000/svg" width="49pt" version="1.1" viewBox="0,0,49,49">
<defs/>
<g id="Untitled" inkpad:layerName="Untitled" visibility="hidden">
<path d="M24.5+13.25C24.5+19.4632+19.4632+24.5+13.25+24.5L2+24.5L2+13.25C2+7.03679+7.03679+2+13.25+2C19.4632+2+24.5+7.03679+24.5+13.25Z" opacity="1" fill="#17b7ea"/>
<path d="M24.5+35.75C24.5+29.5368+29.5368+24.5+35.75+24.5L47+24.5L47+35.75C47+41.9632+41.9632+47+35.75+47C29.5368+47+24.5+41.9632+24.5+35.75Z" opacity="1" fill="#17b7ea"/>
<path d="M2+35.75C2+41.9632+7.03679+47+13.25+47L24.5+47L24.5+35.75C24.5+29.5368+19.4632+24.5+13.25+24.5C7.03679+24.5+2+29.5368+2+35.75Z" opacity="1" fill="#17b7ea"/>
<path d="M47+13.25C47+7.03679+41.9632+2+35.75+2L24.5+2L24.5+13.25C24.5+19.4632+29.5368+24.5+35.75+24.5C41.9632+24.5+47+19.4632+47+13.25Z" opacity="1" fill="#17b7ea"/>
</g>
</svg>
